<?xml version="1.0" encoding="UTF-8" standalone="no"?>
<!-- Created with Inkscape (http://www.inkscape.org/) -->

<svg
   xmlns:dc="http://purl.org/dc/elements/1.1/"
   xmlns:cc="http://creativecommons.org/ns#"
   xmlns:rdf="http://www.w3.org/1999/02/22-rdf-syntax-ns#"
   xmlns:svg="http://www.w3.org/2000/svg"
   xmlns="http://www.w3.org/2000/svg"
   xmlns:sodipodi="http://sodipodi.sourceforge.net/DTD/sodipodi-0.dtd"
   xmlns:inkscape="http://www.inkscape.org/namespaces/inkscape"
   width="138.56451mm"
   height="125.00021mm"
   viewBox="0 0 138.56451 125.00021"
   version="1.1"
   id="svg8"
   inkscape:version="0.92.4 (5da689c313, 2019-01-14)"
   sodipodi:docname="logo.svg">
  <defs
     id="defs2" />
  <sodipodi:namedview
     id="base"
     pagecolor="#ffffff"
     bordercolor="#666666"
     borderopacity="1.0"
     inkscape:pageopacity="0.0"
     inkscape:pageshadow="2"
     inkscape:zoom="0.35"
     inkscape:cx="-48.145799"
     inkscape:cy="227.64945"
     inkscape:document-units="mm"
     inkscape:current-layer="layer1"
     showgrid="false"
     inkscape:window-width="1920"
     inkscape:window-height="1017"
     inkscape:window-x="-8"
     inkscape:window-y="-8"
     inkscape:window-maximized="1"
     fit-margin-top="0"
     fit-margin-left="0"
     fit-margin-right="0"
     fit-margin-bottom="0" />
  <metadata
     id="metadata5">
    <rdf:RDF>
      <cc:Work
         rdf:about="">
        <dc:format>image/svg+xml</dc:format>
        <dc:type
           rdf:resource="http://purl.org/dc/dcmitype/StillImage" />
        <dc:title></dc:title>
      </cc:Work>
    </rdf:RDF>
  </metadata>
  <g
     inkscape:label="Layer 1"
     inkscape:groupmode="layer"
     id="layer1"
     transform="translate(-34.283219,-87.84513)">
    <g
       id="layer1-6"
       inkscape:label="Layer 1"
       transform="translate(-0.35755656,0.84513048)">
      <path
         sodipodi:nodetypes="ccccc"
         inkscape:connector-curvature="0"
         id="path4556"
         d="m 121.24356,177 v 20 l 17.32051,-10 -10e-6,-20 z"
         style="fill:#1a7cbc;fill-opacity:1;stroke:none;stroke-width:0.26458332px;stroke-linecap:butt;stroke-linejoin:miter;stroke-opacity:1" />
      <path
         sodipodi:nodetypes="ccccc"
         inkscape:connector-curvature="0"
         id="path4556-4"
         d="m 121.24356,167 v 10 l 17.32051,-10 v -10 z"
         style="fill:#165d9a;fill-opacity:1;stroke:none;stroke-width:0.26458332px;stroke-linecap:butt;stroke-linejoin:miter;stroke-opacity:1" />
      <path
         sodipodi:nodetypes="ccccc"
         inkscape:connector-curvature="0"
         id="path4556-4-1"
         d="m 155.88457,147 v 10 l 17.32051,-10 v -10 z"
         style="fill:#165d9a;fill-opacity:1;stroke:none;stroke-width:0.26458332px;stroke-linecap:butt;stroke-linejoin:miter;stroke-opacity:1" />
      <g
         style="fill:#ffdd55"
         transform="translate(-6.9403678e-6)"
         id="g48">
        <path
           style="fill:#ffdd55;fill-opacity:1;stroke:none;stroke-width:0.26458332px;stroke-linecap:butt;stroke-linejoin:miter;stroke-opacity:1"
           d="m 121.24356,87 43.30127,25 -8.66026,5 8.66026,5 -34.64102,20 -8.66025,-5 -8.66026,5 -43.301268,-25 8.660254,-5 -8.660254,-5 34.641018,-20 8.66025,5 z"
           id="path4524"
           inkscape:connector-curvature="0"
           sodipodi:nodetypes="ccccccccccccc" />
        <path
           style="fill:#ffdd55;fill-opacity:1;stroke:none;stroke-width:0.26458332px;stroke-linecap:butt;stroke-linejoin:miter;stroke-opacity:1"
           d="m 112.5833,152 8.66026,-5 8.66025,5 -8.66025,5 z"
           id="path4524-4"
           inkscape:connector-curvature="0"
           sodipodi:nodetypes="ccccc" />
        <path
           style="fill:#ffdd55;fill-opacity:1;stroke:none;stroke-width:0.26458332px;stroke-linecap:butt;stroke-linejoin:miter;stroke-opacity:1"
           d="m 164.54483,122 8.66025,5 -8.66025,5 z"
           id="path4524-4-2"
           inkscape:connector-curvature="0"
           sodipodi:nodetypes="cccc" />
        <path
           style="fill:#ffdd55;fill-opacity:1;stroke:none;stroke-width:0.26458332px;stroke-linecap:butt;stroke-linejoin:miter;stroke-opacity:1"
           d="m 138.56407,177 17.3205,-10 8.66026,5 -17.32051,10 z"
           id="path4524-4-6"
           inkscape:connector-curvature="0"
           sodipodi:nodetypes="ccccc" />
        <path
           style="fill:#ffdd55;fill-opacity:1;stroke:none;stroke-width:0.26458332px;stroke-linecap:butt;stroke-linejoin:miter;stroke-opacity:1"
           d="m 86.602542,157 8.660255,-5 8.660253,5 -8.660253,5 z"
           id="path4524-4-5"
           inkscape:connector-curvature="0"
           sodipodi:nodetypes="ccccc" />
        <path
           style="fill:#ffdd55;fill-opacity:1;stroke:none;stroke-width:0.26458332px;stroke-linecap:butt;stroke-linejoin:miter;stroke-opacity:1"
           d="m 69.282035,167 8.660254,-5 8.660254,5 v 10 z"
           id="path4524-4-3-8"
           inkscape:connector-curvature="0"
           sodipodi:nodetypes="ccccc" />
        <path
           id="path4524-4-9-7"
           style="fill:#ffdd55;fill-opacity:1;stroke:none;stroke-width:0.26458332px;stroke-linecap:butt;stroke-linejoin:miter;stroke-opacity:1"
           d="m 34.641016,127 8.660254,-5 25.980757,15 -8.660249,5 z m 25.980762,5 8.660254,-5 25.980758,15 -8.66025,5 z"
           inkscape:connector-curvature="0" />
      </g>
      <g
         style="fill:#eb5626;fill-opacity:1"
         transform="translate(190.52534,80.000216)"
         id="g1055">
        <path
           inkscape:connector-curvature="0"
           id="path3717-5"
           transform="matrix(0.26458333,0,0,0.26458333,-190.52523,-80.000238)"
           d="m 621.90234,461.10156 -130.92773,75.5918 v 37.79492 l -32.73047,18.89844 v 188.97461 l 32.73047,-18.89649 v 37.79493 l 130.92773,-75.58985 v -37.79687 l 32.73047,-18.89649 V 480 l -32.73047,18.89844 z m -32.73242,170.08008 32.73242,18.89648 -65.46484,37.79493 v 37.79687 l -32.73047,-18.89844 v -37.79492 z"
           style="fill:#eb5626;fill-opacity:1;stroke:none;stroke-width:0.99999994px;stroke-linecap:butt;stroke-linejoin:miter;stroke-opacity:1" />
        <path
           sodipodi:nodetypes="cccc"
           inkscape:connector-curvature="0"
           id="path941"
           d="m -77.942288,122 8.66026,5 -8.66026,5 z"
           style="fill:#eb5626;fill-opacity:1;stroke:none;stroke-width:0.26458332px;stroke-linecap:butt;stroke-linejoin:miter;stroke-opacity:1" />
        <path
           sodipodi:nodetypes="ccccc"
           inkscape:connector-curvature="0"
           id="path943"
           d="m -77.942288,62 8.66026,-5 v 10 l -8.66026,5 z"
           style="fill:#eb5626;fill-opacity:1;stroke:none;stroke-width:0.26458332px;stroke-linecap:butt;stroke-linejoin:miter;stroke-opacity:1" />
        <path
           sodipodi:nodetypes="cccc"
           inkscape:connector-curvature="0"
           id="path945"
           d="m -34.641018,37 8.66025,-5 v 10 z"
           style="fill:#eb5626;fill-opacity:1;stroke:none;stroke-width:0.26458332px;stroke-linecap:butt;stroke-linejoin:miter;stroke-opacity:1" />
        <path
           sodipodi:nodetypes="ccccccccc"
           inkscape:connector-curvature="0"
           id="path947"
           d="m -129.90381,62 8.66026,-5 v 10 l 8.66025,5 v 10 l -8.66025,5 V 77 l -8.66026,5 z"
           style="fill:#eb5626;fill-opacity:1;stroke:none;stroke-width:0.26458332px;stroke-linecap:butt;stroke-linejoin:miter;stroke-opacity:1" />
        <path
           sodipodi:nodetypes="cccc"
           inkscape:connector-curvature="0"
           id="path949"
           d="m -103.92304,97 8.660249,5 -8.660249,5 z"
           style="fill:#eb5626;fill-opacity:1;stroke:none;stroke-width:0.26458332px;stroke-linecap:butt;stroke-linejoin:miter;stroke-opacity:1" />
        <path
           style="fill:#eb5626;fill-opacity:1;stroke:none;stroke-width:0.26458332px;stroke-linecap:butt;stroke-linejoin:miter;stroke-opacity:1"
           d="m -95.262797,82 8.660259,-5 v 20 l -8.660253,5 z"
           id="path951"
           inkscape:connector-curvature="0"
           sodipodi:nodetypes="ccccc" />
        <path
           style="fill:#eb5626;fill-opacity:1;stroke:none;stroke-width:0.26458332px;stroke-linecap:butt;stroke-linejoin:miter;stroke-opacity:1"
           d="m -103.92305,67 8.66026,-5 v 10 l -8.66026,5 z"
           id="path953"
           inkscape:connector-curvature="0"
           sodipodi:nodetypes="ccccc" />
      </g>
      <g
         transform="translate(-3.4701839e-6)"
         style="fill:#e59b37;fill-opacity:1"
         id="g1149">
        <path
           inkscape:connector-curvature="0"
           style="fill:#e59b37;fill-opacity:1;stroke:none;stroke-width:0.99999994px;stroke-linecap:butt;stroke-linejoin:miter;stroke-opacity:1"
           d="M 261.85352,442.20508 V 480 l 98.19531,56.69336 v 37.79492 l 32.73047,18.89844 v 75.58984 l -32.73047,18.89649 -32.73242,18.89843 v -37.79492 l -65.46289,-37.79492 v -37.79492 l -32.73243,18.89648 v 37.79492 l 32.73243,18.89844 32.73242,18.89649 v 37.79687 l 130.92578,75.58985 v -37.79493 l 32.73242,18.89649 V 593.38672 L 425.51172,574.48828 V 536.69336 Z M 229.12109,612.2832 V 536.69336 L 163.6582,498.89844 130.92578,480 v 37.79492 l 65.46484,37.79492 v 37.79688 z m 98.19532,56.69336 32.73242,18.89649 V 612.2832 l -32.73242,-18.89648 v -37.79688 l -30.19532,-17.43359 -35.26757,-20.36133 v 37.79492 l 23.51171,13.57422 9.22071,5.32422 v 37.79492 l 32.73047,18.89844 z m -163.65821,-207.875 65.46485,37.79688 0.42578,-0.2461 z"
           id="path3717"
           transform="scale(0.26458333)" />
        <path
           style="fill:#e59b37;fill-opacity:1;stroke:none;stroke-width:0.26458332px;stroke-linecap:butt;stroke-linejoin:miter;stroke-opacity:1"
           d="m 129.90381,202 v 10 l -8.66025,-5 z"
           id="path3717-1"
           inkscape:connector-curvature="0"
           sodipodi:nodetypes="cccc" />
        <path
           style="fill:#e59b37;fill-opacity:1;stroke:none;stroke-width:0.26458332px;stroke-linecap:butt;stroke-linejoin:miter;stroke-opacity:1"
           d="m 129.90381,142 v 10 l -8.66025,-5 v -10 z"
           id="path3717-1-3"
           inkscape:connector-curvature="0"
           sodipodi:nodetypes="ccccc" />
        <path
           style="fill:#e59b37;fill-opacity:1;stroke:none;stroke-width:0.26458332px;stroke-linecap:butt;stroke-linejoin:miter;stroke-opacity:1"
           d="m 77.942286,112 -8.66025,5 v -10 z"
           id="path3717-1-3-8-5"
           inkscape:connector-curvature="0"
           sodipodi:nodetypes="cccc" />
        <path
           style="fill:#e59b37;fill-opacity:1;stroke:none;stroke-width:0.26458332px;stroke-linecap:butt;stroke-linejoin:miter;stroke-opacity:1"
           d="m 147.22432,182 v 10 l -8.66025,-5 v -10 z"
           id="path3717-1-3-8-2"
           inkscape:connector-curvature="0"
           sodipodi:nodetypes="ccccc" />
      </g>
      <path
         sodipodi:nodetypes="ccccc"
         inkscape:connector-curvature="0"
         id="path4556-5-5"
         d="m 121.24355,177 2e-4,19.99993 8.66027,-5 L 129.90381,172 Z"
         style="fill:#98ff9b;fill-opacity:1;stroke:none;stroke-width:0.26458332px;stroke-linecap:butt;stroke-linejoin:miter;stroke-opacity:1" />
      <path
         sodipodi:nodetypes="ccccc"
         inkscape:connector-curvature="0"
         id="path4556-4-18-9"
         d="m 121.24355,167 v 10 l 17.32051,-10 v -10 z"
         style="fill:#9a1616;fill-opacity:1;stroke:none;stroke-width:0.26458332px;stroke-linecap:butt;stroke-linejoin:miter;stroke-opacity:1" />
      <path
         sodipodi:nodetypes="ccccc"
         inkscape:connector-curvature="0"
         id="path4556-4-1-0-8"
         d="m 155.88456,147 v 10 l 17.32051,-10 v -10 z"
         style="fill:#9a1616;fill-opacity:1;stroke:none;stroke-width:0.26458332px;stroke-linecap:butt;stroke-linejoin:miter;stroke-opacity:1" />
      <path
         sodipodi:nodetypes="ccccc"
         inkscape:connector-curvature="0"
         id="path4556-5-5-0"
         d="m 155.88457,157 v 10 l 8.66026,5 v -20 z"
         style="fill:#6388ff;fill-opacity:1;stroke:none;stroke-width:0.26458332px;stroke-linecap:butt;stroke-linejoin:miter;stroke-opacity:1" />
      <path
         sodipodi:nodetypes="ccccc"
         inkscape:connector-curvature="0"
         id="path4556-5-5-2"
         d="m 129.90381,172 2e-4,19.99993 8.66027,-5 L 138.56407,167 Z"
         style="fill:#6388ff;fill-opacity:1;stroke:none;stroke-width:0.26458332px;stroke-linecap:butt;stroke-linejoin:miter;stroke-opacity:1" />
      <path
         sodipodi:nodetypes="ccccc"
         inkscape:connector-curvature="0"
         id="path4556-5-5-8"
         d="m 164.54482,152 2e-4,19.99993 8.66027,-5 L 173.20508,147 Z"
         style="fill:#98ff9b;fill-opacity:1;stroke:none;stroke-width:0.26458332px;stroke-linecap:butt;stroke-linejoin:miter;stroke-opacity:1" />
    </g>
  </g>
</svg>
